<svg xmlns="http://www.w3.org/2000/svg" xmlns:xlink="http://www.w3.org/1999/xlink" viewBox="0 0 74.14 58.43"><defs><style>.cls-1{isolation:isolate;}.cls-2{fill:url(#linear-gradient);}.cls-3{opacity:0.27;mix-blend-mode:multiply;}.cls-4{fill:#fff;}.cls-5{fill:#fafafa;}.cls-6{fill:#f5f5f5;}.cls-7{fill:#f0f0f1;}.cls-8{fill:#ebebec;}.cls-9{fill:#e5e7e7;}.cls-10{fill:#e0e2e2;}.cls-11{fill:#dbddde;}.cls-12{fill:#d6d8d9;}.cls-13{fill:#d1d3d4;}.cls-14{fill:url(#linear-gradient-2);}.cls-15{fill:url(#linear-gradient-3);}.cls-16{fill:url(#linear-gradient-4);}.cls-17{fill:url(#linear-gradient-5);}</style><linearGradient id="linear-gradient" y1="29.22" x2="74.14" y2="29.22" gradientUnits="userSpaceOnUse"><stop offset="0" stop-color="#f7da92"/><stop offset="0.18" stop-color="#f6d37d"/><stop offset="0.56" stop-color="#f3c246"/><stop offset="1" stop-color="#efab00"/></linearGradient><linearGradient id="linear-gradient-2" x1="6.26" y1="28.83" x2="53.61" y2="28.83" gradientUnits="userSpaceOnUse"><stop offset="0" stop-color="#fff"/><stop offset="0.32" stop-color="#fbfbfb"/><stop offset="0.64" stop-color="#efefef"/><stop offset="0.96" stop-color="#dbdbdb"/><stop offset="0.99" stop-color="#d8d8d8"/></linearGradient><linearGradient id="linear-gradient-3" x1="11.77" y1="28.83" x2="48.1" y2="28.83" gradientUnits="userSpaceOnUse"><stop offset="0.01" stop-color="#d8d8d8"/><stop offset="0.04" stop-color="#dbdbdb"/><stop offset="0.36" stop-color="#efefef"/><stop offset="0.68" stop-color="#fbfbfb"/><stop offset="1" stop-color="#fff"/></linearGradient><linearGradient id="linear-gradient-4" x1="20.24" y1="27.25" x2="35.45" y2="27.25" xlink:href="#linear-gradient"/><linearGradient id="linear-gradient-5" x1="32.34" y1="35.42" x2="39.62" y2="35.42" xlink:href="#linear-gradient"/></defs><title>1</title><g class="cls-1"><g id="Layer_1" data-name="Layer 1"><path class="cls-2" d="M73.56.07A15.63,15.63,0,0,0,59.64,15.75V42.68A15.58,15.58,0,0,1,44.33,58.43h-29A15.58,15.58,0,0,1,0,42.68V15.75A15.58,15.58,0,0,1,15.31,0H73.56C74.33,0,74.33,0,73.56.07Z"/><g class="cls-3"><rect class="cls-4" x="4.43" y="3" width="52.66" height="52.66" rx="17.65"/><rect class="cls-5" x="4.86" y="3.43" width="51.79" height="51.79" rx="17.14"/><rect class="cls-6" x="5.29" y="3.86" width="50.93" height="50.93" rx="16.63"/><rect class="cls-7" x="5.72" y="4.29" width="50.07" height="50.07" rx="16.11"/><rect class="cls-8" x="6.15" y="4.73" width="49.2" height="49.2" rx="15.6"/><rect class="cls-9" x="6.59" y="5.16" width="48.34" height="48.34" rx="15.09"/><path class="cls-10" d="M21.59,5.59H39.92A14.57,14.57,0,0,1,54.49,20.16V38.49A14.58,14.58,0,0,1,39.92,53.07H21.59A14.58,14.58,0,0,1,7,38.49V20.16A14.57,14.57,0,0,1,21.59,5.59Z"/><rect class="cls-11" x="7.45" y="6.02" width="46.61" height="46.61" rx="14.06"/><rect class="cls-12" x="7.88" y="6.45" width="45.75" height="45.75" rx="13.55"/><path class="cls-13" d="M21.35,6.88H40.16a13,13,0,0,1,13,13V38.73a13,13,0,0,1-13,13H21.35a13,13,0,0,1-13-13V19.92A13,13,0,0,1,21.35,6.88Z"/></g><rect class="cls-14" x="6.26" y="5.16" width="47.34" height="47.34" rx="13.75"/><rect class="cls-15" x="11.77" y="10.66" width="36.33" height="36.33" rx="8.24"/><path class="cls-16" d="M27.85,34.86a7.61,7.61,0,1,1,7.6-7.61A7.68,7.68,0,0,1,27.85,34.86Zm0-13.83a6.23,6.23,0,1,0,6.22,6.22A6.19,6.19,0,0,0,27.85,21Z"/><path class="cls-17" d="M33.38,31.83l6,6.05a.68.68,0,0,1,0,.95.71.71,0,0,1-.52.18c-.17,0-.43,0-.52-.18l-6-6Z"/></g></g></svg>