<svg xmlns="http://www.w3.org/2000/svg" xmlns:xlink="http://www.w3.org/1999/xlink" viewBox="0 0 74.14 58.43"><defs><style>.cls-1{isolation:isolate;}.cls-2{fill:url(#linear-gradient);}.cls-3{opacity:0.27;mix-blend-mode:multiply;}.cls-4{fill:#fff;}.cls-5{fill:#fafafa;}.cls-6{fill:#f5f5f5;}.cls-7{fill:#f0f0f1;}.cls-8{fill:#ebebec;}.cls-9{fill:#e5e7e7;}.cls-10{fill:#e0e2e2;}.cls-11{fill:#dbddde;}.cls-12{fill:#d6d8d9;}.cls-13{fill:#d1d3d4;}.cls-14{fill:url(#linear-gradient-2);}.cls-15{fill:url(#linear-gradient-3);}.cls-16{fill:url(#linear-gradient-4);}.cls-17{fill:url(#linear-gradient-5);}.cls-18{fill:url(#linear-gradient-6);}</style><linearGradient id="linear-gradient" y1="29.22" x2="74.14" y2="29.22" gradientUnits="userSpaceOnUse"><stop offset="0" stop-color="#f7da92"/><stop offset="0.18" stop-color="#f6d37d"/><stop offset="0.56" stop-color="#f3c246"/><stop offset="1" stop-color="#efab00"/></linearGradient><linearGradient id="linear-gradient-2" x1="6.26" y1="28.83" x2="53.61" y2="28.83" gradientUnits="userSpaceOnUse"><stop offset="0" stop-color="#fff"/><stop offset="0.32" stop-color="#fbfbfb"/><stop offset="0.64" stop-color="#efefef"/><stop offset="0.96" stop-color="#dbdbdb"/><stop offset="0.99" stop-color="#d8d8d8"/></linearGradient><linearGradient id="linear-gradient-3" x1="11.77" y1="28.83" x2="48.1" y2="28.83" gradientUnits="userSpaceOnUse"><stop offset="0.01" stop-color="#d8d8d8"/><stop offset="0.04" stop-color="#dbdbdb"/><stop offset="0.36" stop-color="#efefef"/><stop offset="0.68" stop-color="#fbfbfb"/><stop offset="1" stop-color="#fff"/></linearGradient><linearGradient id="linear-gradient-4" x1="21.07" y1="24.95" x2="36.22" y2="24.95" gradientUnits="userSpaceOnUse"><stop offset="0" stop-color="#efab00"/><stop offset="0.73" stop-color="#f2ba2e"/><stop offset="0.9" stop-color="#f5cf6f"/><stop offset="1" stop-color="#f7da92"/></linearGradient><linearGradient id="linear-gradient-5" x1="20.83" y1="34.68" x2="30.3" y2="34.68" xlink:href="#linear-gradient-4"/><linearGradient id="linear-gradient-6" x1="28.05" y1="34.76" x2="36.53" y2="34.76" xlink:href="#linear-gradient-4"/></defs><title>4</title><g class="cls-1"><g id="Layer_1" data-name="Layer 1"><path class="cls-2" d="M73.56.07A15.63,15.63,0,0,0,59.64,15.75V42.68A15.58,15.58,0,0,1,44.33,58.43h-29A15.58,15.58,0,0,1,0,42.68V15.75A15.58,15.58,0,0,1,15.31,0H73.56C74.33,0,74.33,0,73.56.07Z"/><g class="cls-3"><rect class="cls-4" x="4.43" y="3" width="52.66" height="52.66" rx="17.65"/><rect class="cls-5" x="4.86" y="3.43" width="51.79" height="51.79" rx="17.14"/><rect class="cls-6" x="5.29" y="3.86" width="50.93" height="50.93" rx="16.63"/><rect class="cls-7" x="5.72" y="4.29" width="50.07" height="50.07" rx="16.11"/><rect class="cls-8" x="6.15" y="4.73" width="49.2" height="49.2" rx="15.6"/><rect class="cls-9" x="6.59" y="5.16" width="48.34" height="48.34" rx="15.09"/><path class="cls-10" d="M21.59,5.59H39.92A14.57,14.57,0,0,1,54.49,20.16V38.49A14.58,14.58,0,0,1,39.92,53.07H21.59A14.58,14.58,0,0,1,7,38.49V20.16A14.57,14.57,0,0,1,21.59,5.59Z"/><rect class="cls-11" x="7.45" y="6.02" width="46.61" height="46.61" rx="14.06"/><rect class="cls-12" x="7.88" y="6.45" width="45.75" height="45.75" rx="13.55"/><path class="cls-13" d="M21.35,6.88H40.16a13,13,0,0,1,13,13V38.73a13,13,0,0,1-13,13H21.35a13,13,0,0,1-13-13V19.92A13,13,0,0,1,21.35,6.88Z"/></g><rect class="cls-14" x="6.26" y="5.16" width="47.34" height="47.34" rx="13.75"/><rect class="cls-15" x="11.77" y="10.66" width="36.33" height="36.33" rx="8.24"/><path class="cls-16" d="M31.51,32.47h-.23l-2.63-1.06L26,32.47c-.23.15-.6,0-.75-.38l-1.21-2.56-2.55-1.2a.77.77,0,0,1-.38-.75l1-2.63-1-2.63c-.15-.23,0-.6.38-.75l2.55-1.21,1.21-2.55a.77.77,0,0,1,.75-.38l2.63,1,2.63-1c.23-.15.6,0,.75.38l1.21,2.55,2.55,1.21a.77.77,0,0,1,.38.75l-1,2.63,1,2.63c.15.22,0,.6-.38.75l-2.55,1.2L32,32.09A.83.83,0,0,1,31.51,32.47Zm-2.94-2.26h.23l2.26.83,1.05-2.18a.24.24,0,0,1,.22-.23l2.26-1.05-.83-2.26V25l.83-2.26-2.26-1.05a.24.24,0,0,1-.22-.23l-1.05-2.25L28.8,20h-.38l-2.25-.83L25,21.34a.25.25,0,0,1-.23.23l-2.25,1.05.82,2.25v.38l-.82,2.25,2.25,1.06a.24.24,0,0,1,.23.22L26,31l2.25-.83Z"/><path class="cls-17" d="M25,29.61l-2.63,7.22,2.25-.38c.23,0,.45,0,.6.23l1.43,1.8,2.63-7.22,1.05.38-3,8.19c-.15.23-.23.38-.45.38H26.7a.65.65,0,0,1-.46-.23l-1.8-2.25-2.86.45A.62.62,0,0,1,21,38a.8.8,0,0,1-.15-.6l3-8.19Z"/><path class="cls-18" d="M33.31,29.23l3.16,8.2c.15.22,0,.45-.15.6a.86.86,0,0,1-.6.22l-2.86-.45-1.8,2.26a.55.55,0,0,1-.46.22h-.15a.49.49,0,0,1-.45-.37l-1.95-5,1.05-.45,1.43,4L32,36.6a.85.85,0,0,1,.6-.23l2.25.38-2.63-7.22Z"/></g></g></svg>