<svg xmlns="http://www.w3.org/2000/svg" xmlns:xlink="http://www.w3.org/1999/xlink" viewBox="0 0 74.14 58.43"><defs><style>.cls-1{isolation:isolate;}.cls-2{fill:url(#linear-gradient);}.cls-3{opacity:0.27;mix-blend-mode:multiply;}.cls-4{fill:#fff;}.cls-5{fill:#fafafa;}.cls-6{fill:#f5f5f5;}.cls-7{fill:#f0f0f1;}.cls-8{fill:#ebebec;}.cls-9{fill:#e5e7e7;}.cls-10{fill:#e0e2e2;}.cls-11{fill:#dbddde;}.cls-12{fill:#d6d8d9;}.cls-13{fill:#d1d3d4;}.cls-14{fill:url(#linear-gradient-2);}.cls-15{fill:url(#linear-gradient-3);}.cls-16{fill:url(#linear-gradient-4);}</style><linearGradient id="linear-gradient" y1="29.22" x2="74.14" y2="29.22" gradientUnits="userSpaceOnUse"><stop offset="0" stop-color="#f7da92"/><stop offset="0.18" stop-color="#f6d37d"/><stop offset="0.56" stop-color="#f3c246"/><stop offset="1" stop-color="#efab00"/></linearGradient><linearGradient id="linear-gradient-2" x1="6.26" y1="28.83" x2="53.61" y2="28.83" gradientUnits="userSpaceOnUse"><stop offset="0" stop-color="#fff"/><stop offset="0.32" stop-color="#fbfbfb"/><stop offset="0.64" stop-color="#efefef"/><stop offset="0.96" stop-color="#dbdbdb"/><stop offset="0.99" stop-color="#d8d8d8"/></linearGradient><linearGradient id="linear-gradient-3" x1="11.77" y1="28.83" x2="48.1" y2="28.83" gradientUnits="userSpaceOnUse"><stop offset="0.01" stop-color="#d8d8d8"/><stop offset="0.04" stop-color="#dbdbdb"/><stop offset="0.36" stop-color="#efefef"/><stop offset="0.68" stop-color="#fbfbfb"/><stop offset="1" stop-color="#fff"/></linearGradient><linearGradient id="linear-gradient-4" x1="19.2" y1="28.23" x2="39.91" y2="28.23" gradientUnits="userSpaceOnUse"><stop offset="0" stop-color="#efab00"/><stop offset="0.42" stop-color="#efac02"/><stop offset="0.57" stop-color="#efae09"/><stop offset="0.67" stop-color="#f0b214"/><stop offset="0.76" stop-color="#f1b725"/><stop offset="0.83" stop-color="#f2be3b"/><stop offset="0.9" stop-color="#f4c757"/><stop offset="0.96" stop-color="#f5d176"/><stop offset="1" stop-color="#f7da92"/></linearGradient></defs><title>6</title><g class="cls-1"><g id="Layer_1" data-name="Layer 1"><path class="cls-2" d="M73.56.07A15.63,15.63,0,0,0,59.64,15.75V42.68A15.58,15.58,0,0,1,44.33,58.43h-29A15.58,15.58,0,0,1,0,42.68V15.75A15.58,15.58,0,0,1,15.31,0H73.56C74.33,0,74.33,0,73.56.07Z"/><g class="cls-3"><rect class="cls-4" x="4.43" y="3" width="52.66" height="52.66" rx="17.65"/><rect class="cls-5" x="4.86" y="3.43" width="51.79" height="51.79" rx="17.14"/><rect class="cls-6" x="5.29" y="3.86" width="50.93" height="50.93" rx="16.63"/><rect class="cls-7" x="5.72" y="4.29" width="50.07" height="50.07" rx="16.11"/><rect class="cls-8" x="6.15" y="4.73" width="49.2" height="49.2" rx="15.6"/><rect class="cls-9" x="6.59" y="5.16" width="48.34" height="48.34" rx="15.09"/><path class="cls-10" d="M21.59,5.59H39.92A14.57,14.57,0,0,1,54.49,20.16V38.49A14.58,14.58,0,0,1,39.92,53.07H21.59A14.58,14.58,0,0,1,7,38.49V20.16A14.57,14.57,0,0,1,21.59,5.59Z"/><rect class="cls-11" x="7.45" y="6.02" width="46.61" height="46.61" rx="14.06"/><rect class="cls-12" x="7.88" y="6.45" width="45.75" height="45.75" rx="13.55"/><path class="cls-13" d="M21.35,6.88H40.16a13,13,0,0,1,13,13V38.73a13,13,0,0,1-13,13H21.35a13,13,0,0,1-13-13V19.92A13,13,0,0,1,21.35,6.88Z"/></g><rect class="cls-14" x="6.26" y="5.16" width="47.34" height="47.34" rx="13.75"/><rect class="cls-15" x="11.77" y="10.66" width="36.33" height="36.33" rx="8.24"/><path class="cls-16" d="M34.76,38.25a3.84,3.84,0,0,1-1-.27l-3.92-1.91c-.17-.18-.43-.18-.52,0L25.44,38a2.11,2.11,0,0,1-2.52-.52,2,2,0,0,1-.44-1.65L23,31.45c0-.26,0-.43-.18-.52l-3-3.05a2.3,2.3,0,0,1-.52-2.09,2.27,2.27,0,0,1,1.66-1.39l4.35-.69a.56.56,0,0,0,.52-.44l1.92-3.92a2.25,2.25,0,0,1,1.83-1.13,2,2,0,0,1,1.82,1.13l1.92,3.92a3.05,3.05,0,0,0,.52.44l4.36.69a2.12,2.12,0,0,1,1.65,1.39,2.08,2.08,0,0,1-.52,2.09l-3,3.05c-.17.18-.26.44-.17.52l.69,4.36a2.24,2.24,0,0,1-.43,1.65A2,2,0,0,1,34.76,38.25Zm-5.14-3.66a3.81,3.81,0,0,1,1,.26l3.92,1.91a.8.8,0,0,0,.87-.17c.17-.17.17-.26.17-.52l-.69-4.35a2.36,2.36,0,0,1,.52-1.83l3.05-3.05a.68.68,0,0,0,.17-.7.49.49,0,0,0-.52-.43l-4.18-1a2.33,2.33,0,0,1-1.57-1.13L30.41,19.7a.73.73,0,0,0-1.22,0l-1.92,3.92a2.4,2.4,0,0,1-1.57,1.13l-4.35.87a.55.55,0,0,0-.52.44.54.54,0,0,0,.17.69l3.05,3.05a1.93,1.93,0,0,1,.52,1.83L24.05,36c0,.26,0,.44.17.52.18.27.53.27.88.18L29,34.76C28.93,34.59,29.36,34.59,29.62,34.59Z"/></g></g></svg>