<svg xmlns="http://www.w3.org/2000/svg" xmlns:xlink="http://www.w3.org/1999/xlink" viewBox="0 0 74.14 58.43"><defs><style>.cls-1{isolation:isolate;}.cls-2{fill:url(#linear-gradient);}.cls-3{opacity:0.27;mix-blend-mode:multiply;}.cls-4{fill:#fff;}.cls-5{fill:#fafafa;}.cls-6{fill:#f5f5f5;}.cls-7{fill:#f0f0f1;}.cls-8{fill:#ebebec;}.cls-9{fill:#e5e7e7;}.cls-10{fill:#e0e2e2;}.cls-11{fill:#dbddde;}.cls-12{fill:#d6d8d9;}.cls-13{fill:#d1d3d4;}.cls-14{fill:url(#linear-gradient-2);}.cls-15{fill:url(#linear-gradient-3);}.cls-16{fill:url(#linear-gradient-4);}.cls-17{fill:url(#linear-gradient-5);}.cls-18{fill:url(#linear-gradient-6);}.cls-19{fill:url(#linear-gradient-7);}.cls-20{fill:url(#linear-gradient-8);}</style><linearGradient id="linear-gradient" y1="29.22" x2="74.14" y2="29.22" gradientUnits="userSpaceOnUse"><stop offset="0" stop-color="#f7da92"/><stop offset="0.18" stop-color="#f6d37d"/><stop offset="0.56" stop-color="#f3c246"/><stop offset="1" stop-color="#efab00"/></linearGradient><linearGradient id="linear-gradient-2" x1="6.26" y1="27.83" x2="53.61" y2="27.83" gradientUnits="userSpaceOnUse"><stop offset="0" stop-color="#fff"/><stop offset="0.32" stop-color="#fbfbfb"/><stop offset="0.64" stop-color="#efefef"/><stop offset="0.96" stop-color="#dbdbdb"/><stop offset="0.99" stop-color="#d8d8d8"/></linearGradient><linearGradient id="linear-gradient-3" x1="11.77" y1="27.83" x2="48.1" y2="27.83" gradientUnits="userSpaceOnUse"><stop offset="0.01" stop-color="#d8d8d8"/><stop offset="0.04" stop-color="#dbdbdb"/><stop offset="0.36" stop-color="#efefef"/><stop offset="0.68" stop-color="#fbfbfb"/><stop offset="1" stop-color="#fff"/></linearGradient><linearGradient id="linear-gradient-4" x1="27.2" y1="30.23" x2="32.43" y2="30.23" gradientUnits="userSpaceOnUse"><stop offset="0" stop-color="#efab00"/><stop offset="0.21" stop-color="#efac03"/><stop offset="0.37" stop-color="#f0af0d"/><stop offset="0.52" stop-color="#f1b51e"/><stop offset="0.66" stop-color="#f2bc36"/><stop offset="0.8" stop-color="#f4c654"/><stop offset="0.93" stop-color="#f6d279"/><stop offset="1" stop-color="#f7da92"/></linearGradient><linearGradient id="linear-gradient-5" x1="27.11" y1="35.07" x2="32.23" y2="35.07" xlink:href="#linear-gradient-4"/><linearGradient id="linear-gradient-6" x1="24.24" y1="23.46" x2="35.01" y2="23.46" xlink:href="#linear-gradient-4"/><linearGradient id="linear-gradient-7" x1="31.3" y1="33.14" x2="38.37" y2="33.14" xlink:href="#linear-gradient-4"/><linearGradient id="linear-gradient-8" x1="20.87" y1="33.14" x2="27.94" y2="33.14" xlink:href="#linear-gradient-4"/></defs><title>8-01</title><g class="cls-1"><g id="Layer_1" data-name="Layer 1"><path class="cls-2" d="M73.56.07A15.63,15.63,0,0,0,59.64,15.75V42.68A15.58,15.58,0,0,1,44.33,58.43h-29A15.58,15.58,0,0,1,0,42.68V15.75A15.58,15.58,0,0,1,15.31,0H73.56C74.33,0,74.33,0,73.56.07Z"/><g class="cls-3"><rect class="cls-4" x="4.43" y="2" width="52.66" height="52.66" rx="17.65"/><rect class="cls-5" x="4.86" y="2.43" width="51.79" height="51.79" rx="17.14"/><rect class="cls-6" x="5.29" y="2.86" width="50.93" height="50.93" rx="16.63"/><rect class="cls-7" x="5.72" y="3.29" width="50.07" height="50.07" rx="16.11"/><rect class="cls-8" x="6.15" y="3.73" width="49.2" height="49.2" rx="15.6"/><rect class="cls-9" x="6.59" y="4.16" width="48.34" height="48.34" rx="15.09"/><path class="cls-10" d="M21.59,4.59H39.92A14.57,14.57,0,0,1,54.49,19.16V37.49A14.58,14.58,0,0,1,39.92,52.07H21.59A14.58,14.58,0,0,1,7,37.49V19.16A14.57,14.57,0,0,1,21.59,4.59Z"/><rect class="cls-11" x="7.45" y="5.02" width="46.61" height="46.61" rx="14.06"/><rect class="cls-12" x="7.88" y="5.45" width="45.75" height="45.75" rx="13.55"/><path class="cls-13" d="M21.35,5.88H40.16a13,13,0,0,1,13,13V37.73a13,13,0,0,1-13,13H21.35a13,13,0,0,1-13-13V18.92A13,13,0,0,1,21.35,5.88Z"/></g><rect class="cls-14" x="6.26" y="4.16" width="47.34" height="47.34" rx="13.75"/><rect class="cls-15" x="11.77" y="9.66" width="36.33" height="36.33" rx="8.24"/><path class="cls-16" d="M30.21,32h-.93a1.85,1.85,0,0,1-1.76-1.18l-.25-.93c-.17-.25,0-.67.16-.92a1.06,1.06,0,0,1,.85-.42h3.11a1.18,1.18,0,0,1,.84.42,1.23,1.23,0,0,1,.17.92l-.25.93A2.59,2.59,0,0,1,30.21,32Zm-1.6-2.19.17.5c0,.17.25.26.42.26h.93c.16,0,.42-.17.42-.26l.17-.5Z"/><path class="cls-17" d="M30.88,31.12,32.23,37a.7.7,0,0,1-.25.67l-1.85,1.18a.47.47,0,0,1-.42.17.48.48,0,0,1-.43-.17l-1.85-1.18c-.25-.17-.42-.42-.25-.67l1.35-5.89Zm-2.27,6,1.1.84,1.09-.84-1.09-4.88Z"/><path class="cls-18" d="M29.62,29.52c-2.94,0-5.38-2.69-5.38-6.06s2.44-6.06,5.38-6.06S35,20.09,35,23.46,32.65,29.52,29.62,29.52Zm0-10.77c-2.27,0-4,2.19-4,4.71s1.77,4.71,4,4.71,4-2.19,4-4.71S32,18.75,29.62,18.75Z"/><path class="cls-19" d="M37.7,38.69A.62.62,0,0,1,37,38V33.47a4.53,4.53,0,0,0-4.55-4.54H32a.68.68,0,1,1,0-1.35h.5a6,6,0,0,1,5.89,5.89V38A.62.62,0,0,1,37.7,38.69Z"/><path class="cls-20" d="M21.54,38.69a.62.62,0,0,1-.67-.67V33.47a6,6,0,0,1,5.89-5.89h.51a.68.68,0,0,1,0,1.35h-.43a4.52,4.52,0,0,0-4.54,4.54V38A.73.73,0,0,1,21.54,38.69Z"/></g></g></svg>