<?xml version="1.0" encoding="utf-8"?>
<!-- Generator: Adobe Illustrator 18.0.0, SVG Export Plug-In . SVG Version: 6.00 Build 0)  -->
<!DOCTYPE svg PUBLIC "-//W3C//DTD SVG 1.1//EN" "http://www.w3.org/Graphics/SVG/1.1/DTD/svg11.dtd">
<svg version="1.1" id="Layer_1" xmlns="http://www.w3.org/2000/svg" xmlns:xlink="http://www.w3.org/1999/xlink" x="0px" y="0px"
	 viewBox="0 0 1080 1080" enable-background="new 0 0 1080 1080" xml:space="preserve">
<g>
	<g>
		<path opacity="0.2" fill="#181832" d="M540,47.8C268.2,47.8,47.8,268.2,47.8,540s220.3,492.2,492.2,492.2
			c271.8,0,492.2-220.4,492.2-492.2S811.8,47.8,540,47.8z M540,868.7c-181.6,0-328.7-147.2-328.7-328.8S358.4,211.3,540,211.3
			S868.7,358.4,868.7,540S721.6,868.7,540,868.7z"/>
		<path fill="#FFFFFF" d="M540,211.3c-181.6,0-328.7,147.2-328.7,328.7S358.4,868.7,540,868.7S868.7,721.6,868.7,540
			S721.6,211.3,540,211.3z M540,852.2c-172.4,0-312.2-139.8-312.2-312.2c0-172.4,139.8-312.2,312.2-312.2
			c172.4,0,312.2,139.8,312.2,312.2C852.2,712.4,712.4,852.2,540,852.2z"/>
		<path opacity="0.45" fill="#181832" d="M852.2,540c0,172.4-139.8,312.2-312.2,312.2c-172.4,0-312.2-139.8-312.2-312.2
			c0-172.4,139.8-312.2,312.2-312.2C712.4,227.8,852.2,367.6,852.2,540z"/>
	</g>
	<path opacity="0.2" fill="#363643" d="M540,46.1C267.2,46.1,46.1,267.2,46.1,540s221.1,493.9,493.9,493.9
		c272.8,0,493.9-221.1,493.9-493.9S812.8,46.1,540,46.1z M540,869.9c-182.2,0-329.9-147.7-329.9-329.9S357.8,210.1,540,210.1
		S869.9,357.8,869.9,540S722.2,869.9,540,869.9z"/>
	<path fill="#FFFFFF" d="M540,210.1c-182.2,0-329.9,147.7-329.9,329.9S357.8,869.9,540,869.9S869.9,722.2,869.9,540
		S722.2,210.1,540,210.1z M540,853.2C367,853.2,226.8,713,226.8,540c0-173,140.2-313.2,313.2-313.2c173,0,313.2,140.2,313.2,313.2
		C853.2,713,713,853.2,540,853.2z"/>
	<path opacity="0.45" fill="#363643" d="M853.2,540c0,173-140.2,313.2-313.2,313.2C367,853.2,226.8,713,226.8,540
		c0-173,140.2-313.2,313.2-313.2C713,226.8,853.2,367,853.2,540z"/>
</g>
</svg>
